<mxfile host="Electron" modified="2024-07-17T19:50:15.567Z" agent="Mozilla/5.0 (X11; Linux x86_64) AppleWebKit/537.36 (KHTML, like Gecko) draw.io/21.2.8 Chrome/112.0.5615.165 Electron/24.2.0 Safari/537.36" etag="50DjJP9F0K6Pj9myG3PU" version="21.2.8" type="device">
  <diagram name="Página-1" id="on8AfeRd7_VBlLdeUZIL">
    <mxGraphModel dx="1114" dy="579" grid="1" gridSize="10" guides="1" tooltips="1" connect="1" arrows="1" fold="1" page="1" pageScale="1" pageWidth="1100" pageHeight="850" math="0" shadow="0">
      <root>
        <mxCell id="0" />
        <mxCell id="1" parent="0" />
        <mxCell id="VfgdzYDsphCztfSPQBmA-1" value="SIGNUP" style="rounded=0;whiteSpace=wrap;html=1;fillColor=#ffe6cc;strokeColor=#d79b00;" vertex="1" parent="1">
          <mxGeometry x="40" y="210" width="240" height="60" as="geometry" />
        </mxCell>
        <mxCell id="VfgdzYDsphCztfSPQBmA-2" value="LOGIN" style="rounded=0;whiteSpace=wrap;html=1;fillColor=#ffe6cc;strokeColor=#d79b00;" vertex="1" parent="1">
          <mxGeometry x="40" y="370" width="240" height="60" as="geometry" />
        </mxCell>
        <mxCell id="VfgdzYDsphCztfSPQBmA-3" value="LOGOUT" style="rounded=0;whiteSpace=wrap;html=1;fillColor=#fff2cc;strokeColor=#d6b656;" vertex="1" parent="1">
          <mxGeometry x="40" y="610" width="240" height="60" as="geometry" />
        </mxCell>
        <mxCell id="VfgdzYDsphCztfSPQBmA-4" value="RECOVER ACCOUNT" style="rounded=0;whiteSpace=wrap;html=1;fillColor=#ffe6cc;strokeColor=#d79b00;" vertex="1" parent="1">
          <mxGeometry x="40" y="690" width="240" height="60" as="geometry" />
        </mxCell>
        <mxCell id="VfgdzYDsphCztfSPQBmA-5" value="VALIDATE ACCOUNT" style="rounded=0;whiteSpace=wrap;html=1;fillColor=#ffe6cc;strokeColor=#d79b00;" vertex="1" parent="1">
          <mxGeometry x="40" y="290" width="240" height="60" as="geometry" />
        </mxCell>
        <mxCell id="VfgdzYDsphCztfSPQBmA-6" value="CHANGE PASSWORD" style="rounded=0;whiteSpace=wrap;html=1;fillColor=#fff2cc;strokeColor=#d6b656;" vertex="1" parent="1">
          <mxGeometry x="40" y="530" width="240" height="60" as="geometry" />
        </mxCell>
        <mxCell id="VfgdzYDsphCztfSPQBmA-7" value="&lt;b&gt;&lt;font style=&quot;font-size: 16px;&quot; face=&quot;Courier New&quot;&gt;users&lt;/font&gt;&lt;/b&gt;" style="shape=cylinder3;whiteSpace=wrap;html=1;boundedLbl=1;backgroundOutline=1;size=15;" vertex="1" parent="1">
          <mxGeometry x="790" y="350" width="180" height="235" as="geometry" />
        </mxCell>
        <mxCell id="VfgdzYDsphCztfSPQBmA-11" value="REFRESH TOKEN" style="rounded=0;whiteSpace=wrap;html=1;fillColor=#fff2cc;strokeColor=#d6b656;" vertex="1" parent="1">
          <mxGeometry x="40" y="450" width="240" height="60" as="geometry" />
        </mxCell>
        <mxCell id="VfgdzYDsphCztfSPQBmA-12" value="" style="shape=flexArrow;endArrow=classic;html=1;rounded=0;exitX=1;exitY=0.5;exitDx=0;exitDy=0;fillColor=#ffe6cc;strokeColor=#d79b00;" edge="1" parent="1" source="VfgdzYDsphCztfSPQBmA-1">
          <mxGeometry width="50" height="50" relative="1" as="geometry">
            <mxPoint x="520" y="500" as="sourcePoint" />
            <mxPoint x="440" y="240" as="targetPoint" />
          </mxGeometry>
        </mxCell>
        <mxCell id="VfgdzYDsphCztfSPQBmA-13" value="COMO usuario&lt;br&gt;QUIERO crear una cuenta&lt;br&gt;PARA poder acceder a la app" style="rounded=1;whiteSpace=wrap;html=1;fillColor=#ffe6cc;strokeColor=#d79b00;" vertex="1" parent="1">
          <mxGeometry x="440" y="180" width="180" height="90" as="geometry" />
        </mxCell>
        <mxCell id="VfgdzYDsphCztfSPQBmA-14" value="" style="endArrow=classic;html=1;rounded=0;exitX=1;exitY=0.5;exitDx=0;exitDy=0;entryX=0;entryY=0.187;entryDx=0;entryDy=0;entryPerimeter=0;fillColor=#ffe6cc;strokeColor=#d79b00;" edge="1" parent="1" source="VfgdzYDsphCztfSPQBmA-13" target="VfgdzYDsphCztfSPQBmA-7">
          <mxGeometry width="50" height="50" relative="1" as="geometry">
            <mxPoint x="520" y="470" as="sourcePoint" />
            <mxPoint x="570" y="420" as="targetPoint" />
          </mxGeometry>
        </mxCell>
        <mxCell id="VfgdzYDsphCztfSPQBmA-16" value="COMO usuario&lt;br&gt;QUIERO validar mi cuenta&lt;br&gt;PARA poder acceder a la app" style="rounded=1;whiteSpace=wrap;html=1;fillColor=#ffe6cc;strokeColor=#d79b00;" vertex="1" parent="1">
          <mxGeometry x="440" y="280" width="175" height="80" as="geometry" />
        </mxCell>
        <mxCell id="VfgdzYDsphCztfSPQBmA-17" value="" style="endArrow=classic;html=1;rounded=0;exitX=1;exitY=0.5;exitDx=0;exitDy=0;entryX=-0.017;entryY=0.37;entryDx=0;entryDy=0;entryPerimeter=0;fillColor=#ffe6cc;strokeColor=#d79b00;" edge="1" parent="1" source="VfgdzYDsphCztfSPQBmA-16" target="VfgdzYDsphCztfSPQBmA-7">
          <mxGeometry width="50" height="50" relative="1" as="geometry">
            <mxPoint x="540" y="670" as="sourcePoint" />
            <mxPoint x="718.5699999999999" y="317.79999999999995" as="targetPoint" />
          </mxGeometry>
        </mxCell>
        <mxCell id="VfgdzYDsphCztfSPQBmA-18" value="" style="shape=flexArrow;endArrow=classic;html=1;rounded=0;exitX=1;exitY=0.5;exitDx=0;exitDy=0;fillColor=#ffe6cc;strokeColor=#d79b00;" edge="1" parent="1">
          <mxGeometry width="50" height="50" relative="1" as="geometry">
            <mxPoint x="280" y="319.5" as="sourcePoint" />
            <mxPoint x="440" y="319.5" as="targetPoint" />
          </mxGeometry>
        </mxCell>
        <mxCell id="VfgdzYDsphCztfSPQBmA-19" value="COMO usuario&lt;br&gt;QUIERO iniciar sesión&lt;br&gt;PARA poder acceder a la app" style="rounded=1;whiteSpace=wrap;html=1;fillColor=#ffe6cc;strokeColor=#d79b00;" vertex="1" parent="1">
          <mxGeometry x="440" y="370" width="175" height="80" as="geometry" />
        </mxCell>
        <mxCell id="VfgdzYDsphCztfSPQBmA-20" value="" style="shape=flexArrow;endArrow=classic;html=1;rounded=0;exitX=1;exitY=0.5;exitDx=0;exitDy=0;fillColor=#ffe6cc;strokeColor=#d79b00;" edge="1" parent="1">
          <mxGeometry width="50" height="50" relative="1" as="geometry">
            <mxPoint x="280" y="399.5" as="sourcePoint" />
            <mxPoint x="440" y="399.5" as="targetPoint" />
          </mxGeometry>
        </mxCell>
        <mxCell id="VfgdzYDsphCztfSPQBmA-21" value="" style="endArrow=classic;html=1;rounded=0;entryX=1;entryY=0.5;entryDx=0;entryDy=0;exitX=-0.022;exitY=0.553;exitDx=0;exitDy=0;exitPerimeter=0;fillColor=#ffe6cc;strokeColor=#d79b00;" edge="1" parent="1" source="VfgdzYDsphCztfSPQBmA-7" target="VfgdzYDsphCztfSPQBmA-19">
          <mxGeometry width="50" height="50" relative="1" as="geometry">
            <mxPoint x="520" y="470" as="sourcePoint" />
            <mxPoint x="570" y="420" as="targetPoint" />
          </mxGeometry>
        </mxCell>
        <mxCell id="VfgdzYDsphCztfSPQBmA-22" value="COMO usuario&lt;br&gt;QUIERO renovar mi token&lt;br&gt;PARA mantener la sesión activa" style="rounded=1;whiteSpace=wrap;html=1;fillColor=#fff2cc;strokeColor=#d6b656;" vertex="1" parent="1">
          <mxGeometry x="440" y="460" width="175" height="80" as="geometry" />
        </mxCell>
        <mxCell id="VfgdzYDsphCztfSPQBmA-23" value="" style="shape=flexArrow;endArrow=classic;html=1;rounded=0;exitX=1;exitY=0.5;exitDx=0;exitDy=0;fillColor=#fff2cc;strokeColor=#d6b656;" edge="1" parent="1">
          <mxGeometry width="50" height="50" relative="1" as="geometry">
            <mxPoint x="280" y="479.5" as="sourcePoint" />
            <mxPoint x="440" y="479.5" as="targetPoint" />
          </mxGeometry>
        </mxCell>
        <mxCell id="VfgdzYDsphCztfSPQBmA-24" value="" style="endArrow=classic;startArrow=classic;html=1;rounded=0;entryX=-0.011;entryY=0.647;entryDx=0;entryDy=0;entryPerimeter=0;exitX=1;exitY=0.5;exitDx=0;exitDy=0;fillColor=#fff2cc;strokeColor=#d6b656;" edge="1" parent="1" source="VfgdzYDsphCztfSPQBmA-22" target="VfgdzYDsphCztfSPQBmA-7">
          <mxGeometry width="50" height="50" relative="1" as="geometry">
            <mxPoint x="620" y="500" as="sourcePoint" />
            <mxPoint x="570" y="420" as="targetPoint" />
          </mxGeometry>
        </mxCell>
        <mxCell id="VfgdzYDsphCztfSPQBmA-25" value="COMO usuario&lt;br&gt;QUIERO cambiar mi clave&lt;br&gt;PARA asegurar mi cuenta" style="rounded=1;whiteSpace=wrap;html=1;fillColor=#fff2cc;strokeColor=#d6b656;" vertex="1" parent="1">
          <mxGeometry x="440" y="550" width="175" height="80" as="geometry" />
        </mxCell>
        <mxCell id="VfgdzYDsphCztfSPQBmA-26" value="" style="shape=flexArrow;endArrow=classic;html=1;rounded=0;exitX=1;exitY=0.5;exitDx=0;exitDy=0;fillColor=#fff2cc;strokeColor=#d6b656;" edge="1" parent="1">
          <mxGeometry width="50" height="50" relative="1" as="geometry">
            <mxPoint x="280" y="569.5" as="sourcePoint" />
            <mxPoint x="440" y="569.5" as="targetPoint" />
          </mxGeometry>
        </mxCell>
        <mxCell id="VfgdzYDsphCztfSPQBmA-29" value="" style="endArrow=classic;html=1;rounded=0;entryX=0;entryY=0;entryDx=0;entryDy=168.75;entryPerimeter=0;exitX=1;exitY=0.5;exitDx=0;exitDy=0;fillColor=#fff2cc;strokeColor=#d6b656;" edge="1" parent="1" source="VfgdzYDsphCztfSPQBmA-25" target="VfgdzYDsphCztfSPQBmA-7">
          <mxGeometry width="50" height="50" relative="1" as="geometry">
            <mxPoint x="670" y="590" as="sourcePoint" />
            <mxPoint x="860" y="729" as="targetPoint" />
          </mxGeometry>
        </mxCell>
        <mxCell id="VfgdzYDsphCztfSPQBmA-30" value="COMO usuario&lt;br&gt;QUIERO recuperar mi cuenta&lt;br&gt;PARA poder acceder a la app" style="rounded=1;whiteSpace=wrap;html=1;fillColor=#ffe6cc;strokeColor=#d79b00;" vertex="1" parent="1">
          <mxGeometry x="440" y="750" width="175" height="80" as="geometry" />
        </mxCell>
        <mxCell id="VfgdzYDsphCztfSPQBmA-32" value="" style="shape=flexArrow;endArrow=classic;html=1;rounded=0;exitX=1;exitY=0.5;exitDx=0;exitDy=0;entryX=0;entryY=0.5;entryDx=0;entryDy=0;fillColor=#ffe6cc;strokeColor=#d79b00;" edge="1" parent="1" source="VfgdzYDsphCztfSPQBmA-4" target="VfgdzYDsphCztfSPQBmA-30">
          <mxGeometry width="50" height="50" relative="1" as="geometry">
            <mxPoint x="353.96" y="935.39" as="sourcePoint" />
            <mxPoint x="513.96" y="935.39" as="targetPoint" />
          </mxGeometry>
        </mxCell>
        <mxCell id="VfgdzYDsphCztfSPQBmA-33" value="" style="endArrow=classic;startArrow=classic;html=1;rounded=0;entryX=0.072;entryY=0.979;entryDx=0;entryDy=0;entryPerimeter=0;exitX=1;exitY=0.425;exitDx=0;exitDy=0;fillColor=#ffe6cc;strokeColor=#d79b00;exitPerimeter=0;" edge="1" parent="1" source="VfgdzYDsphCztfSPQBmA-30" target="VfgdzYDsphCztfSPQBmA-7">
          <mxGeometry width="50" height="50" relative="1" as="geometry">
            <mxPoint x="618.96" y="893.89" as="sourcePoint" />
            <mxPoint x="820" y="730" as="targetPoint" />
          </mxGeometry>
        </mxCell>
        <mxCell id="VfgdzYDsphCztfSPQBmA-34" value="COMO usuario&lt;br&gt;QUIERO cerrar sesión&lt;br&gt;PARA asegurar mi cuenta" style="rounded=1;whiteSpace=wrap;html=1;fillColor=#fff2cc;strokeColor=#d6b656;" vertex="1" parent="1">
          <mxGeometry x="440" y="650" width="175" height="80" as="geometry" />
        </mxCell>
        <mxCell id="VfgdzYDsphCztfSPQBmA-35" value="" style="shape=flexArrow;endArrow=classic;html=1;rounded=0;exitX=1.004;exitY=0.633;exitDx=0;exitDy=0;exitPerimeter=0;entryX=0;entryY=0.5;entryDx=0;entryDy=0;fillColor=#fff2cc;strokeColor=#d6b656;" edge="1" parent="1" source="VfgdzYDsphCztfSPQBmA-3" target="VfgdzYDsphCztfSPQBmA-34">
          <mxGeometry width="50" height="50" relative="1" as="geometry">
            <mxPoint x="310" y="771" as="sourcePoint" />
            <mxPoint x="470" y="770.5" as="targetPoint" />
          </mxGeometry>
        </mxCell>
        <mxCell id="VfgdzYDsphCztfSPQBmA-36" value="" style="endArrow=classic;html=1;rounded=0;entryX=0;entryY=1;entryDx=0;entryDy=-15;entryPerimeter=0;exitX=1;exitY=0.5;exitDx=0;exitDy=0;fillColor=#fff2cc;strokeColor=#d6b656;" edge="1" parent="1" source="VfgdzYDsphCztfSPQBmA-34" target="VfgdzYDsphCztfSPQBmA-7">
          <mxGeometry width="50" height="50" relative="1" as="geometry">
            <mxPoint x="700" y="791" as="sourcePoint" />
            <mxPoint x="850" y="690" as="targetPoint" />
          </mxGeometry>
        </mxCell>
        <mxCell id="VfgdzYDsphCztfSPQBmA-37" value="&lt;b&gt;&lt;font face=&quot;Courier New&quot; style=&quot;font-size: 20px;&quot;&gt;AUTH MICROSERVICE&lt;/font&gt;&lt;/b&gt;" style="text;html=1;align=center;verticalAlign=middle;resizable=0;points=[];autosize=1;strokeColor=none;fillColor=none;" vertex="1" parent="1">
          <mxGeometry x="430" y="50" width="230" height="40" as="geometry" />
        </mxCell>
        <mxCell id="VfgdzYDsphCztfSPQBmA-38" value="&lt;b&gt;POST /signup&lt;/b&gt;" style="text;html=1;align=center;verticalAlign=middle;resizable=0;points=[];autosize=1;strokeColor=none;fillColor=none;" vertex="1" parent="1">
          <mxGeometry x="300" y="200" width="100" height="30" as="geometry" />
        </mxCell>
        <mxCell id="VfgdzYDsphCztfSPQBmA-39" value="&lt;b&gt;GET /validate-account&lt;/b&gt;" style="text;html=1;align=center;verticalAlign=middle;resizable=0;points=[];autosize=1;strokeColor=none;fillColor=none;" vertex="1" parent="1">
          <mxGeometry x="275" y="280" width="150" height="30" as="geometry" />
        </mxCell>
        <mxCell id="VfgdzYDsphCztfSPQBmA-40" value="&lt;b&gt;POST /login&lt;/b&gt;" style="text;html=1;align=center;verticalAlign=middle;resizable=0;points=[];autosize=1;strokeColor=none;fillColor=none;" vertex="1" parent="1">
          <mxGeometry x="295" y="360" width="90" height="30" as="geometry" />
        </mxCell>
        <mxCell id="VfgdzYDsphCztfSPQBmA-41" value="&lt;b&gt;POST /change-password&lt;/b&gt;" style="text;html=1;align=center;verticalAlign=middle;resizable=0;points=[];autosize=1;strokeColor=none;fillColor=none;" vertex="1" parent="1">
          <mxGeometry x="280" y="525" width="160" height="30" as="geometry" />
        </mxCell>
        <mxCell id="VfgdzYDsphCztfSPQBmA-42" value="&lt;b&gt;POST /recover-account&lt;/b&gt;" style="text;html=1;align=center;verticalAlign=middle;resizable=0;points=[];autosize=1;strokeColor=none;fillColor=none;" vertex="1" parent="1">
          <mxGeometry x="240" y="780" width="160" height="30" as="geometry" />
        </mxCell>
        <mxCell id="VfgdzYDsphCztfSPQBmA-43" value="&lt;b&gt;GET /logout&lt;/b&gt;" style="text;html=1;align=center;verticalAlign=middle;resizable=0;points=[];autosize=1;strokeColor=none;fillColor=none;" vertex="1" parent="1">
          <mxGeometry x="310" y="620" width="90" height="30" as="geometry" />
        </mxCell>
        <mxCell id="VfgdzYDsphCztfSPQBmA-44" value="&lt;b&gt;GET /refresh-token&lt;/b&gt;" style="text;html=1;align=center;verticalAlign=middle;resizable=0;points=[];autosize=1;strokeColor=none;fillColor=none;" vertex="1" parent="1">
          <mxGeometry x="290" y="440" width="130" height="30" as="geometry" />
        </mxCell>
      </root>
    </mxGraphModel>
  </diagram>
</mxfile>
